<svg id="Layer_1" data-name="Layer 1" xmlns="http://www.w3.org/2000/svg" viewBox="0 0 565.27 178.73"><defs><style>.cls-1,.cls-2{fill:#231f20;}.cls-2{opacity:0.56;}.cls-3{fill:#f47724;}</style></defs><title>Zesty.io Logo</title><polygon class="cls-1" points="92.91 115.89 136.32 115.89 91.28 168.81 91.28 177.11 154.39 177.11 154.39 165.87 109.22 165.87 154.39 112.96 154.39 104.66 92.91 104.66 92.91 115.89"/><path class="cls-1" d="M223.36,118.34a31.65,31.65,0,0,0-10.7-8.24,35,35,0,0,0-28.32-.07,33.92,33.92,0,0,0-11,8.08,37.29,37.29,0,0,0-7.21,12,41.85,41.85,0,0,0-2.58,14.71,40.28,40.28,0,0,0,2.87,15.36,36.7,36.7,0,0,0,7.78,12,34.72,34.72,0,0,0,11.51,7.72,36.35,36.35,0,0,0,14,2.73c6.85,0,12.69-1.26,17.36-3.73a44.19,44.19,0,0,0,12.39-9.82l.8-.91L222,160.78l-.81.84a36.06,36.06,0,0,1-9.24,6.94,25.79,25.79,0,0,1-12,2.57,24,24,0,0,1-8.38-1.48,22.89,22.89,0,0,1-7.2-4.31,22.61,22.61,0,0,1-5.27-6.94,26.12,26.12,0,0,1-2.43-8.13h55.25l.12-1.08a20.77,20.77,0,0,0,.14-2.23V145.4A48.77,48.77,0,0,0,230,130.54,35.89,35.89,0,0,0,223.36,118.34Zm-25.31,0a20.08,20.08,0,0,1,8.62,1.77,19,19,0,0,1,6.37,4.81,24.13,24.13,0,0,1,4.19,7.12,31.38,31.38,0,0,1,1.81,7.3H176.69a28.62,28.62,0,0,1,2.23-7.57,26.18,26.18,0,0,1,4.72-7.14,20.2,20.2,0,0,1,6.52-4.64A19.29,19.29,0,0,1,198.06,118.31Z" transform="translate(-5.34 -3.91)"/><path class="cls-1" d="M290.85,145.35a33,33,0,0,0-7.52-3.94c-2.69-1-5.42-1.92-8.13-2.73-2.33-.71-4.6-1.44-6.74-2.16a35,35,0,0,1-5.56-2.35,11.91,11.91,0,0,1-3.63-2.88,5.32,5.32,0,0,1-1.22-3.5v-.27a7.7,7.7,0,0,1,3.2-6.29c2.21-1.76,5.28-2.65,9.13-2.65a31.29,31.29,0,0,1,10.1,1.76,46.44,46.44,0,0,1,10,4.82l1.05.67,6-9.93-1-.64a50.79,50.79,0,0,0-12.35-5.76,44.81,44.81,0,0,0-13.5-2.16,32.24,32.24,0,0,0-9.92,1.48,23.91,23.91,0,0,0-8,4.28,19.66,19.66,0,0,0-5.27,6.78,20.22,20.22,0,0,0-1.88,8.71v.27a15.93,15.93,0,0,0,2.29,8.79,19.47,19.47,0,0,0,5.77,5.78,34.79,34.79,0,0,0,7.72,3.72c2.75.95,5.52,1.84,8.26,2.66,2.23.62,4.42,1.3,6.5,2a30,30,0,0,1,5.4,2.4,11.64,11.64,0,0,1,3.5,3,6,6,0,0,1,1.18,3.74v.27a8.32,8.32,0,0,1-3.57,7.14,16.08,16.08,0,0,1-9.71,2.74,34.09,34.09,0,0,1-12-2.23,45.19,45.19,0,0,1-11.54-6.46l-1-.76-6.68,9.41.9.72a49.08,49.08,0,0,0,14,7.71,46.44,46.44,0,0,0,15.71,2.85,34,34,0,0,0,10.18-1.48,24.58,24.58,0,0,0,8.26-4.35,21.52,21.52,0,0,0,5.6-7,20.61,20.61,0,0,0,2.1-9.42v-.27a16.46,16.46,0,0,0-2.14-8.62A19.81,19.81,0,0,0,290.85,145.35Z" transform="translate(-5.34 -3.91)"/><polygon class="cls-1" points="303.77 116.24 326.37 116.24 326.37 175.89 338.99 175.89 338.99 116.24 361.58 116.24 361.58 104.64 303.77 104.64 303.77 116.24"/><polygon class="cls-1" points="422.35 104.64 402.2 136.19 382.25 104.64 367.49 104.64 395.79 147.8 376.47 175.89 389.09 175.89 408.41 147.49 436.7 104.64 422.35 104.64"/><rect class="cls-2" x="430.41" y="161.95" width="13.54" height="13.94"/><rect class="cls-2" x="462.36" y="104.64" width="12.42" height="71.25"/><path class="cls-2" d="M567.86,129.77a36.19,36.19,0,0,0-7.63-11.65,35.81,35.81,0,0,0-11.71-7.89,38.11,38.11,0,0,0-15.06-2.9,37.12,37.12,0,0,0-26.87,10.94A35.93,35.93,0,0,0,498.85,130a36.89,36.89,0,0,0-2.75,14.2v.2a36.88,36.88,0,0,0,2.75,14.2,36.15,36.15,0,0,0,7.63,11.65,35.76,35.76,0,0,0,11.71,7.89,38.1,38.1,0,0,0,15.06,2.9,37.13,37.13,0,0,0,26.87-10.94,35.94,35.94,0,0,0,7.74-11.71,36.88,36.88,0,0,0,2.75-14.2V144A36.9,36.9,0,0,0,567.86,129.77Zm-10.48,14.61a26.8,26.8,0,0,1-1.78,9.77,25,25,0,0,1-4.92,8,22.93,22.93,0,0,1-7.55,5.39,24.43,24.43,0,0,1-19.41-.05,24,24,0,0,1-7.65-5.45,24.39,24.39,0,0,1-5-8,27.2,27.2,0,0,1-1.77-9.82V144a26.8,26.8,0,0,1,1.77-9.77,25,25,0,0,1,4.92-8,23,23,0,0,1,7.55-5.39,24.43,24.43,0,0,1,19.41.05,24,24,0,0,1,7.65,5.45,24.42,24.42,0,0,1,5,8,27.21,27.21,0,0,1,1.78,9.82Z" transform="translate(-5.34 -3.91)"/><polygon class="cls-3" points="71.43 0 71.43 26.15 98.64 36 71.43 45.98 71.43 73.85 134.63 49.33 134.63 49.04 134.63 22.8 71.43 0"/><polygon class="cls-3" points="0 73.87 0 100.1 63.2 122.91 63.2 96.76 35.99 86.9 63.2 76.93 63.2 49.06 0 73.58 0 73.87"/></svg>